<?xml version="1.0" encoding="UTF-8"?>
<svg id="Layer_2" xmlns="http://www.w3.org/2000/svg" viewBox="0 0 47.83 98.35">
  <defs>
    <style>
      .cls-1 {
        fill: #00554b;
      }
    </style>
  </defs>
  <g id="OBJECTS">
    <path class="cls-1" d="M24.53,67.81C18.39,55.36,6.71,23.64.55,11.19c-.68-1.37-1.01-2.62.68-3.5,1.6-.83,3.11-.94,4.09.89,1.09,2.04,2.08,4.14,3.33,6.65-.59-4.05-.91-7.63-1.7-11.1-.49-2.16.15-3.26,2.02-3.93,2.02-.72,2.48.62,3.06,2.16,4.96,13.33,15.49,45.93,20.57,59.22,1.2,3.13,2.79,6.11,4.64,8.99-.11-7.25-.26-14.5-.3-21.75,0-1.79,0-3.73.66-5.33.46-1.11,2.06-1.75,3.15-2.6.68.97,1.36,1.94,1.89,2.7.17-.2.67-1.13,1.45-1.59.72-.43,1.98-.77,2.55-.42.55.33.75,1.62.7,2.47-.24,4.66-.96,9.33-.87,13.98.24,11.87.78,23.74,1.32,35.61.1,2.1.07,3.87-2.26,4.59-.55.17-1.33.2-1.8-.07-1.44-.82-2.8-1.77-4.14-2.74-10.26-7.34-20.52-14.67-30.75-22.06-1.45-1.05-2.69-2.39-4.04-3.58-1.2-1.06-2.16-2.16-.75-3.75,1.32-1.48,2.63-1.35,4.19-.24,2.36,1.66,4.84,3.14,7.27,4.7.18-.24.35-.49.53-.73-2.57-2.29-5.2-4.52-7.69-6.89-1.26-1.2-3.06-2.6-.84-4.42,1.85-1.52,3.89-2.15,5.95-.11,3.39,3.35,6.83,6.65,10.25,9.97l.82-.48Z"/>
  </g>
</svg>