<?xml version="1.0" encoding="UTF-8"?>
<svg id="Layer_2" xmlns="http://www.w3.org/2000/svg" viewBox="0 0 164.83 115.23">
  <defs>
    <style>
      .cls-1 {
        fill: #00554b;
      }
    </style>
  </defs>
  <g id="Layer_1-2" data-name="Layer_1">
    <polygon class="cls-1" points="119.72 115.23 87.66 115.23 104.88 77.15 89.89 77.15 72.43 115.23 39.58 115.23 84.79 19.49 116.82 19.4 104.98 44.46 119.22 44.46 136.44 8 29.84 8 12.62 44.46 27.01 44.46 39.18 19.48 70.64 19.48 25.43 115.23 16.58 115.23 58.02 27.48 44.18 27.48 32.01 52.46 0 52.46 24.77 0 149.06 0 124.29 52.46 92.36 52.46 104.18 27.43 89.87 27.48 52.21 107.23 67.29 107.23 84.75 69.15 117.26 69.15 100.03 107.23 114.58 107.23 156.03 16.49 164.83 16.48 119.72 115.23"/>
  </g>
</svg>